<svg width="10em" height="3em" xmlns="http://www.w3.org/2000/svg" viewBox="90.67999877929688 10.980004882812494 318.64000244140624 128.039990234375" style="" preserveAspectRatio="xMidYMid"><defs><linearGradient id="editing-glowing-gradient" x1="0.8146601955249185" x2="0.18533980447508147" y1="0.8885729807284856" y2="0.11142701927151444"><stop offset="0" stop-color="#00acff"></stop><stop offset="1" stop-color="#b31dff"></stop></linearGradient><filter id="editing-glowing" x="-100%" y="-100%" width="300%" height="300%"><feGaussianBlur in="SourceGraphic" result="blur" stdDeviation="10"></feGaussianBlur><feMerge><feMergeNode in="blur"></feMergeNode><feMergeNode in="SourceGraphic"></feMergeNode></feMerge></filter></defs><g filter="url(#editing-glowing)"><g transform="translate(141.029296875, 106.720703125)"><path d="M20-26.69L20-26.69L20-26.69Q21.88-25.91 23.81-25.05L23.81-25.05L23.81-25.05Q25.75-24.19 27.55-23.20L27.55-23.20L27.55-23.20Q29.34-22.22 30.92-21.06L30.92-21.06L30.92-21.06Q32.50-19.91 33.67-18.50L33.67-18.50L33.67-18.50Q34.84-17.09 35.52-15.41L35.52-15.41L35.52-15.41Q36.19-13.72 36.19-11.66L36.19-11.66L36.19-11.66Q36.19-8.59 34.97-6.20L34.97-6.20L34.97-6.20Q33.75-3.81 31.69-2.17L31.69-2.17L31.69-2.17Q29.63-0.53 26.88 0.34L26.88 0.34L26.88 0.34Q24.13 1.22 21.09 1.22L21.09 1.22L21.09 1.22Q17.03 1.22 12.95 0.19L12.95 0.19L12.95 0.19Q8.88-0.84 5.28-3.25L5.28-3.25L5.28-3.25Q4.59-3.69 3.94-4.41L3.94-4.41L3.94-4.41Q3.28-5.13 3.28-5.94L3.28-5.94L3.28-5.94Q3.28-6.59 3.75-7.09L3.75-7.09L6.94-10.88L6.94-10.88Q8.44-9.69 10.25-8.28L10.25-8.28L10.25-8.28Q12.06-6.88 13.98-5.66L13.98-5.66L13.98-5.66Q15.91-4.44 17.81-3.63L17.81-3.63L17.81-3.63Q19.72-2.81 21.41-2.81L21.41-2.81L21.41-2.81Q22.81-2.81 24.16-3.28L24.16-3.28L24.16-3.28Q25.50-3.75 26.55-4.61L26.55-4.61L26.55-4.61Q27.59-5.47 28.23-6.70L28.23-6.70L28.23-6.70Q28.88-7.94 28.88-9.47L28.88-9.47L28.88-9.47Q28.88-11.44 27.84-13.06L27.84-13.06L27.84-13.06Q26.81-14.69 25.11-16.05L25.11-16.05L25.11-16.05Q23.41-17.41 21.23-18.53L21.23-18.53L21.23-18.53Q19.06-19.66 16.78-20.59L16.78-20.59L16.78-20.59Q13-22.19 10.66-23.80L10.66-23.80L10.66-23.80Q8.31-25.41 7.02-27.02L7.02-27.02L7.02-27.02Q5.72-28.63 5.27-30.22L5.27-30.22L5.27-30.22Q4.81-31.81 4.81-33.34L4.81-33.34L4.81-33.34Q4.81-35.66 5.59-37.44L5.59-37.44L5.59-37.44Q6.38-39.22 7.70-40.55L7.70-40.55L7.70-40.55Q9.03-41.88 10.81-42.78L10.81-42.78L10.81-42.78Q12.59-43.69 14.59-44.25L14.59-44.25L14.59-44.25Q16.59-44.81 18.70-45.06L18.70-45.06L18.70-45.06Q20.81-45.31 22.81-45.31L22.81-45.31L22.81-45.31Q23.69-45.31 24.88-45.23L24.88-45.23L24.88-45.23Q26.06-45.16 27.34-45L27.34-45L27.34-45Q28.63-44.84 29.88-44.58L29.88-44.58L29.88-44.58Q31.13-44.31 32.11-43.92L32.11-43.92L32.11-43.92Q33.09-43.53 33.70-43L33.70-43L33.70-43Q34.31-42.47 34.31-41.78L34.31-41.78L34.31-41.78Q34.31-41.25 33.94-40.56L33.94-40.56L31.44-36.28L31.44-36.28Q30.06-37.06 28.59-37.94L28.59-37.94L28.59-37.94Q27.13-38.81 25.53-39.52L25.53-39.52L25.53-39.52Q23.94-40.22 22.23-40.69L22.23-40.69L22.23-40.69Q20.53-41.16 18.66-41.16L18.66-41.16L18.66-41.16Q17.34-41.16 16.13-40.75L16.13-40.75L16.13-40.75Q14.91-40.34 14-39.52L14-39.52L14-39.52Q13.09-38.69 12.55-37.45L12.55-37.45L12.55-37.45Q12-36.22 12-34.56L12-34.56L12-34.56Q12-33.16 12.67-32L12.67-32L12.67-32Q13.34-30.84 14.45-29.88L14.45-29.88L14.45-29.88Q15.56-28.91 17-28.13L17-28.13L17-28.13Q18.44-27.34 20-26.69ZM77.59-15.94L77.59-15.94L77.59-15.94Q77.59-12.13 76.27-9L76.27-9L76.27-9Q74.94-5.88 72.61-3.66L72.61-3.66L72.61-3.66Q70.28-1.44 67.16-0.23L67.16-0.23L67.16-0.23Q64.03 0.97 60.47 0.97L60.47 0.97L60.47 0.97Q56.84 0.97 53.70-0.25L53.70-0.25L53.70-0.25Q50.56-1.47 48.25-3.69L48.25-3.69L48.25-3.69Q45.94-5.91 44.59-9.02L44.59-9.02L44.59-9.02Q43.25-12.13 43.25-15.94L43.25-15.94L43.25-15.94Q43.25-19.78 44.59-22.92L44.59-22.92L44.59-22.92Q45.94-26.06 48.25-28.30L48.25-28.30L48.25-28.30Q50.56-30.53 53.70-31.75L53.70-31.75L53.70-31.75Q56.84-32.97 60.47-32.97L60.47-32.97L60.47-32.97Q64.06-32.97 67.19-31.75L67.19-31.75L67.19-31.75Q70.31-30.53 72.63-28.30L72.63-28.30L72.63-28.30Q74.94-26.06 76.27-22.92L76.27-22.92L76.27-22.92Q77.59-19.78 77.59-15.94ZM50.97-16L50.97-16L50.97-16Q50.97-13.34 51.38-10.88L51.38-10.88L51.38-10.88Q51.78-8.41 52.86-6.52L52.86-6.52L52.86-6.52Q53.94-4.63 55.77-3.50L55.77-3.50L55.77-3.50Q57.59-2.38 60.47-2.38L60.47-2.38L60.47-2.38Q63.31-2.38 65.14-3.50L65.14-3.50L65.14-3.50Q66.97-4.63 68.02-6.52L68.02-6.52L68.02-6.52Q69.06-8.41 69.47-10.88L69.47-10.88L69.47-10.88Q69.88-13.34 69.88-16L69.88-16L69.88-16Q69.88-18.66 69.47-21.13L69.47-21.13L69.47-21.13Q69.06-23.59 68.02-25.48L68.02-25.48L68.02-25.48Q66.97-27.38 65.14-28.50L65.14-28.50L65.14-28.50Q63.31-29.63 60.47-29.63L60.47-29.63L60.47-29.63Q57.59-29.63 55.77-28.50L55.77-28.50L55.77-28.50Q53.94-27.38 52.86-25.48L52.86-25.48L52.86-25.48Q51.78-23.59 51.38-21.13L51.38-21.13L51.38-21.13Q50.97-18.66 50.97-16ZM110.47-29L104.97-29L104.97-31.38L104.97-31.38Q105.63-31.66 106.81-31.89L106.81-31.89L106.81-31.89Q108-32.13 109.42-32.28L109.42-32.28L109.42-32.28Q110.84-32.44 112.33-32.53L112.33-32.53L112.33-32.53Q113.81-32.63 115.03-32.63L115.03-32.63L115.03-32.63Q115.69-32.63 116.19-32.59L116.19-32.59L116.19-32.59Q116.69-32.56 117.03-32.41L117.03-32.41L117.03-32.41Q117.38-32.25 117.55-31.92L117.55-31.92L117.55-31.92Q117.72-31.59 117.72-30.97L117.72-30.97L117.72-3.13L123.16-3.13L123.16-0.78L123.16-0.78Q122.63-0.50 121.70-0.25L121.70-0.25L121.70-0.25Q120.78 0 119.66 0.19L119.66 0.19L119.66 0.19Q118.53 0.38 117.31 0.47L117.31 0.47L117.31 0.47Q116.09 0.56 114.97 0.56L114.97 0.56L114.97 0.56Q114 0.56 113.19 0.45L113.19 0.45L113.19 0.45Q112.38 0.34 111.77 0.02L111.77 0.02L111.77 0.02Q111.16-0.31 110.81-0.89L110.81-0.89L110.81-0.89Q110.47-1.47 110.47-2.44L110.47-2.44L110.47-2.69L110.47-2.69Q110.47-2.72 109.92-2.45L109.92-2.45L109.92-2.45Q109.38-2.19 108.42-1.78L108.42-1.78L108.42-1.78Q107.47-1.38 106.20-0.91L106.20-0.91L106.20-0.91Q104.94-0.44 103.50-0.02L103.50-0.02L103.50-0.02Q102.06 0.41 100.53 0.69L100.53 0.69L100.53 0.69Q99 0.97 97.56 0.97L97.56 0.97L97.56 0.97Q94.75 0.97 93 0.23L93 0.23L93 0.23Q91.25-0.50 90.30-1.83L90.30-1.83L90.30-1.83Q89.34-3.16 89-4.98L89-4.98L89-4.98Q88.66-6.81 88.66-8.97L88.66-8.97L88.66-29L83.16-29L83.16-31.38L83.16-31.38Q83.81-31.66 85-31.89L85-31.89L85-31.89Q86.19-32.13 87.59-32.28L87.59-32.28L87.59-32.28Q89-32.44 90.48-32.53L90.48-32.53L90.48-32.53Q91.97-32.63 93.19-32.63L93.19-32.63L93.19-32.63Q93.84-32.63 94.34-32.59L94.34-32.59L94.34-32.59Q94.84-32.56 95.19-32.41L95.19-32.41L95.19-32.41Q95.53-32.25 95.70-31.92L95.70-31.92L95.70-31.92Q95.88-31.59 95.88-30.97L95.88-30.97L95.88-9.59L95.88-9.59Q95.88-8 96.05-6.88L96.05-6.88L96.05-6.88Q96.22-5.75 96.70-5.03L96.70-5.03L96.70-5.03Q97.19-4.31 98.05-3.98L98.05-3.98L98.05-3.98Q98.91-3.66 100.25-3.66L100.25-3.66L100.25-3.66Q101.03-3.66 102.11-3.80L102.11-3.80L102.11-3.80Q103.19-3.94 104.33-4.14L104.33-4.14L104.33-4.14Q105.47-4.34 106.58-4.58L106.58-4.58L106.58-4.58Q107.69-4.81 108.56-5.02L108.56-5.02L108.56-5.02Q109.44-5.22 109.95-5.36L109.95-5.36L109.95-5.36Q110.47-5.50 110.47-5.50L110.47-5.50L110.47-29ZM139.03-46.34L139.03-3.13L144.47-3.13L144.47-0.78L144.47-0.78Q143.94-0.50 143.02-0.25L143.02-0.25L143.02-0.25Q142.09 0 140.97 0.19L140.97 0.19L140.97 0.19Q139.84 0.38 138.63 0.47L138.63 0.47L138.63 0.47Q137.41 0.56 136.28 0.56L136.28 0.56L136.28 0.56Q135.31 0.56 134.50 0.45L134.50 0.45L134.50 0.45Q133.69 0.34 133.09 0.02L133.09 0.02L133.09 0.02Q132.50-0.31 132.16-0.89L132.16-0.89L132.16-0.89Q131.81-1.47 131.81-2.44L131.81-2.44L131.81-44.34L126.28-44.34L126.28-46.72L126.28-46.72Q126.94-47 128.14-47.25L128.14-47.25L128.14-47.25Q129.34-47.50 130.75-47.66L130.75-47.66L130.75-47.66Q132.16-47.81 133.64-47.91L133.64-47.91L133.64-47.91Q135.13-48 136.34-48L136.34-48L136.34-48Q137-48 137.50-47.97L137.50-47.97L137.50-47.97Q138-47.94 138.34-47.78L138.34-47.78L138.34-47.78Q138.69-47.63 138.86-47.30L138.86-47.30L138.86-47.30Q139.03-46.97 139.03-46.34L139.03-46.34ZM180.81-32.56L180.81-32.56L180.81-32.56Q181.41-32.56 181.80-32.25L181.80-32.25L181.80-32.25Q182.19-31.94 182.41-31.44L182.41-31.44L182.41-31.44Q182.63-30.94 182.70-30.36L182.70-30.36L182.70-30.36Q182.78-29.78 182.78-29.25L182.78-29.25L182.78-29.25Q182.78-27.41 182.27-25.08L182.27-25.08L182.27-25.08Q181.75-22.75 180.86-20.16L180.86-20.16L180.86-20.16Q179.97-17.56 178.83-14.81L178.83-14.81L178.83-14.81Q177.69-12.06 176.45-9.42L176.45-9.42L176.45-9.42Q175.22-6.78 173.95-4.36L173.95-4.36L173.95-4.36Q172.69-1.94 171.59 0L171.59 0L171.59 0Q170.59 1.75 169.48 3.56L169.48 3.56L169.48 3.56Q168.38 5.38 167.08 7.09L167.08 7.09L167.08 7.09Q165.78 8.81 164.27 10.33L164.27 10.33L164.27 10.33Q162.75 11.84 160.98 12.98L160.98 12.98L160.98 12.98Q159.22 14.13 157.13 14.78L157.13 14.78L157.13 14.78Q155.03 15.44 152.59 15.44L152.59 15.44L152.59 15.44Q152.13 15.44 151.28 15.38L151.28 15.38L151.28 15.38Q150.44 15.31 149.64 15.13L149.64 15.13L149.64 15.13Q148.84 14.94 148.25 14.58L148.25 14.58L148.25 14.58Q147.66 14.22 147.66 13.63L147.66 13.63L147.66 13.63Q147.66 13.47 147.69 13.38L147.69 13.38L147.69 13.38Q147.72 13.28 147.78 13.13L147.78 13.13L149.50 8.50L149.50 8.50Q151.84 9.19 153.58 9.72L153.58 9.72L153.58 9.72Q155.31 10.25 156.81 10.25L156.81 10.25L156.81 10.25Q158.13 10.25 159.47 9.42L159.47 9.42L159.47 9.42Q160.81 8.59 162.02 7.38L162.02 7.38L162.02 7.38Q163.22 6.16 164.19 4.73L164.19 4.73L164.19 4.73Q165.16 3.31 165.78 2.13L165.78 2.13L153.16-26.81L148.44-24.72L147.28-26.81L147.28-26.81Q148.03-27.50 149.16-28.50L149.16-28.50L149.16-28.50Q150.28-29.50 151.59-30.39L151.59-30.39L151.59-30.39Q152.91-31.28 154.31-31.92L154.31-31.92L154.31-31.92Q155.72-32.56 157.06-32.56L157.06-32.56L157.06-32.56Q157.84-32.56 158.52-32.23L158.52-32.23L158.52-32.23Q159.19-31.91 159.44-31.09L159.44-31.09L159.44-31.09Q159.44-31.03 159.86-30L159.86-30L159.86-30Q160.28-28.97 160.97-27.30L160.97-27.30L160.97-27.30Q161.66-25.63 162.53-23.48L162.53-23.48L162.53-23.48Q163.41-21.34 164.34-19.06L164.34-19.06L164.34-19.06Q165.28-16.78 166.20-14.55L166.20-14.55L166.20-14.55Q167.13-12.31 167.89-10.47L167.89-10.47L167.89-10.47Q168.66-8.63 169.20-7.33L169.20-7.33L169.20-7.33Q169.75-6.03 169.94-5.63L169.94-5.63L169.94-5.63Q171-7.59 172.17-9.98L172.17-9.98L172.17-9.98Q173.34-12.38 174.31-14.84L174.31-14.84L174.31-14.84Q175.28-17.31 175.91-19.66L175.91-19.66L175.91-19.66Q176.53-22 176.53-23.88L176.53-23.88L176.53-23.88Q176.53-25.53 176.13-27.09L176.13-27.09L176.13-27.09Q175.72-28.66 174.91-30.03L174.91-30.03L179.03-32.06L179.03-32.06Q180.13-32.56 180.81-32.56ZM191.88-7.56L191.88-7.56L191.88-7.56Q192.72-6.94 193.92-6.06L193.92-6.06L193.92-6.06Q195.13-5.19 196.56-4.39L196.56-4.39L196.56-4.39Q198-3.59 199.61-3.02L199.61-3.02L199.61-3.02Q201.22-2.44 202.88-2.44L202.88-2.44L202.88-2.44Q203.91-2.44 204.86-2.73L204.86-2.73L204.86-2.73Q205.81-3.03 206.56-3.63L206.56-3.63L206.56-3.63Q207.31-4.22 207.75-5.08L207.75-5.08L207.75-5.08Q208.19-5.94 208.19-7.03L208.19-7.03L208.19-7.03Q208.19-8.31 207.36-9.28L207.36-9.28L207.36-9.28Q206.53-10.25 205.33-11L205.33-11L205.33-11Q204.13-11.75 202.75-12.33L202.75-12.33L202.75-12.33Q201.38-12.91 200.31-13.38L200.31-13.38L200.31-13.38Q198.47-14.19 196.64-15.06L196.64-15.06L196.64-15.06Q194.81-15.94 193.36-17.14L193.36-17.14L193.36-17.14Q191.91-18.34 190.98-20L190.98-20L190.98-20Q190.06-21.66 190.06-24.06L190.06-24.06L190.06-24.06Q190.06-26.47 191.27-28.16L191.27-28.16L191.27-28.16Q192.47-29.84 194.39-30.92L194.39-30.92L194.39-30.92Q196.31-32 198.69-32.48L198.69-32.48L198.69-32.48Q201.06-32.97 203.38-32.97L203.38-32.97L203.38-32.97Q204.81-32.97 206.42-32.84L206.42-32.84L206.42-32.84Q208.03-32.72 209.39-32.42L209.39-32.42L209.39-32.42Q210.75-32.13 211.64-31.66L211.64-31.66L211.64-31.66Q212.53-31.19 212.53-30.53L212.53-30.53L212.53-30.53Q212.53-30.28 212.34-29.88L212.34-29.88L210.22-25.78L210.22-25.78Q209.63-26.16 208.61-26.77L208.61-26.77L208.61-26.77Q207.59-27.38 206.31-27.94L206.31-27.94L206.31-27.94Q205.03-28.50 203.58-28.91L203.58-28.91L203.58-28.91Q202.13-29.31 200.63-29.31L200.63-29.31L200.63-29.31Q198.47-29.31 197.09-28.31L197.09-28.31L197.09-28.31Q195.72-27.31 195.72-25.47L195.72-25.47L195.72-25.47Q195.72-24.03 196.53-22.97L196.53-22.97L196.53-22.97Q197.34-21.91 198.67-21.08L198.67-21.08L198.67-21.08Q200-20.25 201.70-19.58L201.70-19.58L201.70-19.58Q203.41-18.91 205.19-18.19L205.19-18.19L205.19-18.19Q206.97-17.47 208.67-16.66L208.67-16.66L208.67-16.66Q210.38-15.84 211.70-14.77L211.70-14.77L211.70-14.77Q213.03-13.69 213.84-12.27L213.84-12.27L213.84-12.27Q214.66-10.84 214.66-8.91L214.66-8.91L214.66-8.91Q214.66-6.16 213.47-4.28L213.47-4.28L213.47-4.28Q212.28-2.41 210.39-1.23L210.39-1.23L210.39-1.23Q208.50-0.06 206.17 0.45L206.17 0.45L206.17 0.45Q203.84 0.97 201.59 0.97L201.59 0.97L201.59 0.97Q199.66 0.97 197.47 0.55L197.47 0.55L197.47 0.55Q195.28 0.13 193.44-0.52L193.44-0.52L193.44-0.52Q191.59-1.16 190.39-1.91L190.39-1.91L190.39-1.91Q189.19-2.66 189.19-3.31L189.19-3.31L189.19-3.31Q189.19-3.72 189.38-4.09L189.38-4.09L191.88-7.56Z" fill="url(#editing-glowing-gradient)"></path></g></g><style>text {
  font-size: 64px;
  font-family: Arial Black;
  dominant-baseline: central;
  text-anchor: middle;
}</style></svg>