<svg width="90" height="30" viewBox="0 0 269.193 100.098" xmlns="http://www.w3.org/2000/svg" class="" style="">
    <defs>  
        <linearGradient id="logo-gradient" x1="50%" y1="0%" x2="50%" y2="100%" > 
            
            <stop offset="0%" stop-color="#7A5FFF">
                <animate animation-delay="3s" attributeName="stop-color" values="#B30CD4; #A8F9FF; #B30CD4" dur="4s" repeatCount="indefinite"></animate>
            </stop>

            <stop animation-delay="3s" offset="100%" stop-color="#01FF89">
                <animate animation-delay="3s" attributeName="stop-color" values="#A8F9FF; #B30CD4; #A8F9FF" dur="4s" repeatCount="indefinite"></animate>
            </stop>

        </linearGradient> 

    </defs>
    <!-- <g> -->
    <g id="svgGroup" stroke-linecap="round" fill-rule="evenodd" font-size="9pt" stroke="#247ba0" stroke-width="0.25mm" fill="white" style="stroke:#247ba0;stroke-width:0.25mm;">

        <path fill="url('#logo-gradient')" d="M 20.901 48.584 L 15.823 43.652 Q 9.133 37.207 6.692 33.301 A 34.268 34.268 0 0 1 3.387 26.569 A 25.607 25.607 0 0 1 1.858 17.969 A 15.824 15.824 0 0 1 2.79 12.452 A 14.092 14.092 0 0 1 5.862 7.568 A 15.603 15.603 0 0 1 13.331 3.224 Q 15.856 2.542 18.874 2.454 A 31.063 31.063 0 0 1 19.778 2.441 A 61.377 61.377 0 0 1 21.45 2.463 Q 23.794 2.527 25.149 2.783 A 89.584 89.584 0 0 0 26.515 3.031 Q 28.764 3.418 29.641 3.418 A 7.305 7.305 0 0 0 31.475 3.201 A 5.026 5.026 0 0 0 34.036 1.66 A 9.655 9.655 0 0 0 34.489 1.129 Q 34.878 0.641 35.305 0 A 4.442 4.442 0 0 1 36.978 1.875 Q 38.87 5.449 38.87 14.697 Q 38.87 22.803 37.258 26.66 A 6.389 6.389 0 0 1 36.98 27.258 Q 36.654 27.87 36.279 28.165 A 1.41 1.41 0 0 1 36.037 28.32 Q 35.256 20.947 31.252 15.137 Q 28.223 10.719 24.582 9.156 A 10.464 10.464 0 0 0 20.412 8.301 A 8.598 8.598 0 0 0 17.905 8.639 Q 14.816 9.58 13.918 13.135 A 10.064 10.064 0 0 0 13.71 14.253 Q 13.629 14.868 13.597 15.578 A 21.285 21.285 0 0 0 13.577 16.528 Q 13.577 18.115 14.325 20.047 A 16.84 16.84 0 0 0 14.797 21.143 A 26.42 26.42 0 0 0 16.779 24.609 A 31.94 31.94 0 0 0 17.996 26.294 A 50.185 50.185 0 0 0 20.706 29.508 A 60.34 60.34 0 0 0 22.561 31.445 Q 28.943 37.987 31.822 41.075 A 112.99 112.99 0 0 1 32.937 42.285 Q 35.5 45.117 37.502 48.145 A 31.229 31.229 0 0 1 40.265 53.38 Q 41.616 56.718 41.849 59.945 A 18.58 18.58 0 0 1 41.897 61.279 A 15.778 15.778 0 0 1 36.877 73.132 A 19.866 19.866 0 0 1 35.94 73.975 A 21.623 21.623 0 0 1 26.218 78.523 A 30.642 30.642 0 0 1 20.12 79.102 A 26.837 26.837 0 0 1 13.106 78.222 A 21.605 21.605 0 0 1 6.35 75.098 A 15.925 15.925 0 0 1 2.497 71.425 A 13.121 13.121 0 0 1 0.002 63.477 A 15.213 15.213 0 0 1 7.521 53.926 A 18.891 18.891 0 0 1 8.303 53.516 Q 10.012 52.637 11.526 52.246 A 114.742 114.742 0 0 0 11.191 55.217 Q 10.891 58.263 10.891 60.327 A 21.599 21.599 0 0 0 11.149 63.73 A 17.857 17.857 0 0 0 11.623 65.869 A 15.13 15.13 0 0 0 12.648 68.509 A 12.328 12.328 0 0 0 13.723 70.264 Q 16.653 74.219 21.145 74.219 A 11.119 11.119 0 0 0 24.698 73.699 Q 29.739 72.001 29.739 64.746 A 15.488 15.488 0 0 0 28.223 58.279 Q 26.079 53.591 20.901 48.584 Z" id="0" vector-effect="non-scaling-stroke" class="MEqMINMB_0"></path>

        <path fill="url('#logo-gradient')" d="M 52.416 41.528 A 34.82 34.82 0 0 0 51.467 50.049 A 57.67 57.67 0 0 0 51.631 54.473 Q 51.979 58.994 53.066 62.783 A 27.582 27.582 0 0 0 57.131 71.387 A 22.859 22.859 0 0 0 57.699 72.147 Q 60.489 75.725 64.201 77.462 A 18.23 18.23 0 0 0 72.024 79.102 A 22.289 22.289 0 0 0 72.696 79.091 Q 81.598 78.823 86.916 71.387 A 25.585 25.585 0 0 0 89.547 66.766 Q 92.58 59.911 92.58 50.049 Q 92.58 27.832 72.024 27.832 Q 55.884 27.832 52.416 41.528 Z M 66.467 35.681 A 9.719 9.719 0 0 0 65.701 37.109 Q 64.158 40.625 63.849 47.983 A 93.807 93.807 0 0 0 63.772 51.904 A 92.169 92.169 0 0 0 64.016 58.916 Q 64.861 69.925 68.634 73.014 A 5.197 5.197 0 0 0 72.024 74.219 A 5.509 5.509 0 0 0 76.64 71.778 Q 77.336 70.834 77.882 69.526 A 16.42 16.42 0 0 0 78.347 68.262 A 32.62 32.62 0 0 0 79.425 63.758 Q 80.221 59.13 80.272 52.786 A 109.12 109.12 0 0 0 80.276 51.904 A 89.555 89.555 0 0 0 80.155 47.079 Q 79.905 42.458 79.134 39.457 A 15.383 15.383 0 0 0 78.347 37.109 A 8.794 8.794 0 0 0 76.985 34.887 Q 75.147 32.753 72.132 32.716 A 8.7 8.7 0 0 0 72.024 32.715 Q 68.413 32.715 66.467 35.681 Z" id="1" vector-effect="non-scaling-stroke" class="MEqMINMB_1"></path>

        <path fill="url('#logo-gradient')" d="M 144.338 31.055 L 144.338 33.398 L 143.606 55.225 Q 143.606 68.324 145.869 73.36 A 11.011 11.011 0 0 0 145.95 73.535 Q 146.78 75.342 148.879 78.125 L 135.305 78.125 A 23.603 23.603 0 0 1 134.573 75.388 Q 134.265 73.911 134.064 72.192 A 50.706 50.706 0 0 1 133.84 69.727 A 24.486 24.486 0 0 1 130.189 74.467 A 15.037 15.037 0 0 1 119.241 79.102 A 13.145 13.145 0 0 1 115.191 78.509 A 10.392 10.392 0 0 1 109.817 74.512 Q 106.594 70.068 106.594 62.305 L 106.594 55.713 L 106.594 51.221 L 106.496 46.777 Q 106.448 42.529 106.228 40.161 A 82.662 82.662 0 0 0 106.115 39.026 Q 105.944 37.422 105.746 36.244 A 29.378 29.378 0 0 0 105.74 36.206 A 25.134 25.134 0 0 0 105.441 34.707 A 18.346 18.346 0 0 0 105.08 33.374 A 21.139 21.139 0 0 0 104.468 31.672 A 18.184 18.184 0 0 0 104.202 31.055 L 103.127 28.809 L 117.239 28.809 A 25.419 25.419 0 0 1 117.281 29.747 A 20.723 20.723 0 0 1 117.287 30.273 L 117.287 31.689 L 116.457 56.201 A 87.821 87.821 0 0 0 116.508 59.314 Q 116.663 63.647 117.285 65.665 A 7.033 7.033 0 0 0 117.385 65.967 Q 118.313 68.555 119.607 69.678 A 4.425 4.425 0 0 0 121.501 70.629 Q 122.21 70.801 123.049 70.801 A 9.518 9.518 0 0 0 130.25 67.539 A 16.446 16.446 0 0 0 132.473 64.453 A 24.108 24.108 0 0 0 134.084 60.791 A 145.001 145.001 0 0 0 134.154 58.067 Q 134.182 56.432 134.182 54.59 A 190.908 190.908 0 0 0 134.056 47.372 Q 133.605 35.518 131.545 31.055 L 130.471 28.809 L 144.387 28.809 A 64.352 64.352 0 0 0 144.35 29.98 A 49.503 49.503 0 0 0 144.338 31.055 Z" id="2" vector-effect="non-scaling-stroke" class="MEqMINMB_2"></path>

        <path fill="url('#logo-gradient')" d="M 172.317 42.969 L 172.268 55.762 Q 172.268 71.582 174.172 78.125 L 159.768 78.125 A 39.919 39.919 0 0 0 160.768 73.654 Q 161.156 71.34 161.361 68.722 A 70.809 70.809 0 0 0 161.477 66.943 A 1012.02 1012.02 0 0 0 161.797 59.592 Q 162.081 52.46 162.169 47.185 A 264.466 264.466 0 0 0 162.209 42.773 A 2415.733 2415.733 0 0 0 162.207 39.284 Q 162.201 34.881 162.177 32.496 A 198.159 198.159 0 0 0 162.161 31.226 A 43806.33 43806.33 0 0 1 162.063 25.293 A 286.599 286.599 0 0 0 161.938 21.595 Q 161.711 16.005 161.328 13.355 A 13.845 13.845 0 0 0 161.062 11.938 A 46.975 46.975 0 0 0 160.714 10.654 Q 160.201 8.868 159.744 7.935 A 13.919 13.919 0 0 0 158.639 6.056 A 12.551 12.551 0 0 0 158.352 5.664 L 156.741 3.418 L 174.563 3.418 Q 173.196 8.35 172.976 12.866 A 750.766 750.766 0 0 0 172.802 16.617 Q 172.728 18.329 172.67 19.854 A 422.693 422.693 0 0 0 172.634 20.85 A 760.981 760.981 0 0 0 172.465 26.215 A 858.327 858.327 0 0 0 172.414 28.076 A 711.622 711.622 0 0 0 172.355 33.1 Q 172.317 37.567 172.317 42.969 Z" id="3" vector-effect="non-scaling-stroke" class="MEqMINMB_3"></path>

        <path fill="url('#logo-gradient')" d="M 213.137 63.428 L 213.137 61.963 L 213.186 51.123 A 305.548 305.548 0 0 0 213.16 46.997 Q 213.085 41.473 212.791 38.832 A 17.891 17.891 0 0 0 212.649 37.793 A 156.212 156.212 0 0 0 212.394 36.348 Q 212.032 34.357 211.794 33.423 A 18.476 18.476 0 0 0 211.3 31.792 A 15.872 15.872 0 0 0 211.037 31.104 L 210.11 28.809 L 224.514 28.809 L 224.27 31.055 Q 223.977 33.398 223.879 37.891 L 223.684 45.313 A 623.262 623.262 0 0 0 223.501 53.577 A 504.309 504.309 0 0 0 223.44 61.279 A 103.183 103.183 0 0 1 223.313 66.544 Q 223.18 69.128 222.91 71.385 A 51.884 51.884 0 0 1 222.537 73.975 Q 221.633 79.248 220.12 83.252 Q 218.606 87.256 216.653 90.161 A 30.569 30.569 0 0 1 214.651 92.828 A 23.043 23.043 0 0 1 212.551 95.02 A 22.646 22.646 0 0 1 204.891 99.868 A 21.963 21.963 0 0 1 204.25 100.098 A 4.034 4.034 0 0 1 203.322 99.565 Q 202.942 99.279 202.575 98.886 A 7.479 7.479 0 0 1 202.371 98.657 Q 201.729 97.911 201.444 97.227 A 3.082 3.082 0 0 1 201.272 96.68 A 16.245 16.245 0 0 0 207.57 90.907 A 19.919 19.919 0 0 0 208.157 89.941 A 27.688 27.688 0 0 0 210.357 84.835 Q 212.04 79.667 212.709 72.341 A 92.298 92.298 0 0 0 212.795 71.338 A 21.96 21.96 0 0 1 208.698 75.678 A 15.433 15.433 0 0 1 198.879 79.102 Q 193.02 79.102 189.797 74.512 A 15.6 15.6 0 0 1 187.694 69.988 Q 187.086 67.915 186.858 65.432 A 34.219 34.219 0 0 1 186.721 62.305 L 186.721 55.713 A 211.251 211.251 0 0 0 186.672 51.221 L 186.672 46.777 A 184.15 184.15 0 0 0 186.616 44.771 Q 186.52 41.937 186.355 40.161 A 82.662 82.662 0 0 0 186.242 39.026 Q 186.071 37.422 185.873 36.244 A 29.378 29.378 0 0 0 185.867 36.206 A 25.134 25.134 0 0 0 185.568 34.707 A 18.346 18.346 0 0 0 185.207 33.374 A 21.139 21.139 0 0 0 184.595 31.672 A 18.184 18.184 0 0 0 184.329 31.055 L 183.254 28.809 L 198.147 28.809 Q 196.971 35.274 196.884 52.416 A 553.577 553.577 0 0 0 196.877 55.225 Q 196.877 63.135 197.707 65.771 Q 198.234 67.444 198.927 68.537 A 5.724 5.724 0 0 0 199.783 69.604 A 4.24 4.24 0 0 0 202.273 70.759 A 5.784 5.784 0 0 0 202.981 70.801 Q 204.934 70.801 206.423 70.19 Q 207.912 69.58 209.133 68.555 A 12.838 12.838 0 0 0 211.699 65.852 A 17.283 17.283 0 0 0 213.137 63.428 Z M 214.7 59.277 L 214.993 58.105 L 214.7 59.277 Z" id="4" vector-effect="non-scaling-stroke" class="MEqMINMB_4"></path>

        <path fill="url('#logo-gradient')" d="M 252.883 47.217 L 257.278 49.707 A 84.141 84.141 0 0 1 259.887 51.227 Q 262.366 52.735 263.883 53.954 A 14.392 14.392 0 0 1 265.041 54.98 A 17.04 17.04 0 0 1 267.383 57.852 Q 269.192 60.691 269.192 63.721 A 14.485 14.485 0 0 1 268.068 69.486 A 13.807 13.807 0 0 1 265.09 73.828 Q 259.914 79.102 249.563 79.102 Q 243.415 79.102 239.263 77.231 A 14.182 14.182 0 0 1 235.403 74.707 A 10.899 10.899 0 0 1 234.437 73.695 Q 233.802 72.932 233.45 72.168 A 11.294 11.294 0 0 1 235.197 67.288 A 15.212 15.212 0 0 1 236.721 65.283 A 17.048 17.048 0 0 1 238.361 63.66 Q 239.26 62.891 240.143 62.407 A 6.69 6.69 0 0 1 242.141 61.67 Q 241.946 62.305 241.946 63.574 A 5.655 5.655 0 0 0 242.032 64.519 Q 242.197 65.486 242.674 66.714 A 17.684 17.684 0 0 0 242.678 66.724 A 12.245 12.245 0 0 0 244.778 70.215 A 12.425 12.425 0 0 0 246.877 72.248 A 7.907 7.907 0 0 0 251.711 73.926 A 13.421 13.421 0 0 0 253.77 73.779 Q 254.822 73.615 255.661 73.269 A 5.354 5.354 0 0 0 257.375 72.168 A 6.423 6.423 0 0 0 258.545 70.659 A 5.108 5.108 0 0 0 259.182 68.164 A 8.145 8.145 0 0 0 259.013 66.46 A 5.778 5.778 0 0 0 258.157 64.404 A 11.513 11.513 0 0 0 256.662 62.632 A 14.688 14.688 0 0 0 255.447 61.572 A 28.767 28.767 0 0 0 253.221 60.002 A 35.735 35.735 0 0 0 251.614 59.033 L 247.219 56.543 A 72.691 72.691 0 0 1 244.631 54.944 Q 241.079 52.637 239.504 50.879 A 17.658 17.658 0 0 1 236.709 46.776 A 13.888 13.888 0 0 1 235.305 40.674 A 10.993 10.993 0 0 1 238.977 32.249 A 14.549 14.549 0 0 1 240.188 31.25 A 17.18 17.18 0 0 1 247.217 28.245 A 23.88 23.88 0 0 1 251.76 27.832 L 260.354 28.418 Q 263.479 28.418 264.7 27.661 Q 265.92 26.904 266.75 25.928 A 14.763 14.763 0 0 1 267.962 30.141 A 13.458 13.458 0 0 1 268.069 31.836 A 54.994 54.994 0 0 1 268.037 33.763 Q 267.976 35.486 267.8 36.768 A 25.239 25.239 0 0 1 266.995 40.527 A 19.722 19.722 0 0 1 265.96 43.283 Q 265.297 44.696 264.456 45.78 A 10.19 10.19 0 0 1 263.528 46.826 Q 262.118 39.776 260.475 37.345 A 5.388 5.388 0 0 0 260.232 37.012 A 14.725 14.725 0 0 0 259.034 35.668 Q 257.851 34.503 256.667 33.984 A 9.322 9.322 0 0 0 252.883 33.203 Q 251.477 33.203 250.432 33.396 A 7.29 7.29 0 0 0 249.612 33.594 A 7.193 7.193 0 0 0 248.225 34.178 A 6.061 6.061 0 0 0 247.414 34.717 A 6.79 6.79 0 0 0 246.319 35.753 Q 245.683 36.517 245.45 37.366 A 3.804 3.804 0 0 0 245.315 38.379 A 6.873 6.873 0 0 0 245.555 40.234 A 5.609 5.609 0 0 0 246.34 41.919 A 11.291 11.291 0 0 0 247.79 43.619 A 14.484 14.484 0 0 0 249.05 44.702 A 30.339 30.339 0 0 0 251.214 46.213 A 38.072 38.072 0 0 0 252.883 47.217 Z" id="5" vector-effect="non-scaling-stroke" class="MEqMINMB_5"></path>

    </g>

  <style>.MEqMINMB_0{stroke-dasharray:343 345;stroke-dashoffset:344;animation:MEqMINMB_draw_0 7200ms ease-in-out 0ms infinite,MEqMINMB_fade 7200ms linear 0ms infinite;}.MEqMINMB_1{stroke-dasharray:248 250;stroke-dashoffset:249;animation:MEqMINMB_draw_1 7200ms ease-in-out 0ms infinite,MEqMINMB_fade 7200ms linear 0ms infinite;}.MEqMINMB_2{stroke-dasharray:271 273;stroke-dashoffset:272;animation:MEqMINMB_draw_2 7200ms ease-in-out 0ms infinite,MEqMINMB_fade 7200ms linear 0ms infinite;}.MEqMINMB_3{stroke-dasharray:184 186;stroke-dashoffset:185;animation:MEqMINMB_draw_3 7200ms ease-in-out 0ms infinite,MEqMINMB_fade 7200ms linear 0ms infinite;}.MEqMINMB_4{stroke-dasharray:312 314;stroke-dashoffset:313;animation:MEqMINMB_draw_4 7200ms ease-in-out 0ms infinite,MEqMINMB_fade 7200ms linear 0ms infinite;}.MEqMINMB_5{stroke-dasharray:255 257;stroke-dashoffset:256;animation:MEqMINMB_draw_5 7200ms ease-in-out 0ms infinite,MEqMINMB_fade 7200ms linear 0ms infinite;}@keyframes MEqMINMB_draw{100%{stroke-dashoffset:0;}}@keyframes MEqMINMB_fade{0%{stroke-opacity:1;}94.44444444444444%{stroke-opacity:1;}100%{stroke-opacity:0;}}@keyframes MEqMINMB_draw_0{11.11111111111111%{stroke-dashoffset: 344}52.77777777777778%{ stroke-dashoffset: 0;}100%{ stroke-dashoffset: 0;}}@keyframes MEqMINMB_draw_1{11.11111111111111%{stroke-dashoffset: 249}52.77777777777778%{ stroke-dashoffset: 0;}100%{ stroke-dashoffset: 0;}}@keyframes MEqMINMB_draw_2{11.11111111111111%{stroke-dashoffset: 272}52.77777777777778%{ stroke-dashoffset: 0;}100%{ stroke-dashoffset: 0;}}@keyframes MEqMINMB_draw_3{11.11111111111111%{stroke-dashoffset: 185}52.77777777777778%{ stroke-dashoffset: 0;}100%{ stroke-dashoffset: 0;}}@keyframes MEqMINMB_draw_4{11.11111111111111%{stroke-dashoffset: 313}52.77777777777778%{ stroke-dashoffset: 0;}100%{ stroke-dashoffset: 0;}}@keyframes MEqMINMB_draw_5{11.11111111111111%{stroke-dashoffset: 256}52.77777777777778%{ stroke-dashoffset: 0;}100%{ stroke-dashoffset: 0;}}</style>
</svg>